<?xml version="1.0" encoding="utf-8"?>
<svg xmlns="http://www.w3.org/2000/svg" xmlns:xlink="http://www.w3.org/1999/xlink" style="margin: auto; background: transparent; display: block; shape-rendering: auto;" width="209px" height="209px" viewBox="0 0 100 100" preserveAspectRatio="xMidYMid">
<g transform="rotate(0 50 50)">
  <rect x="48.5" y="6.5" rx="1.5" ry="12.5" width="3" height="25" fill="#e6261f">
    <animate attributeName="opacity" values="1;0" keyTimes="0;1" dur="1.6666666666666667s" begin="-1.5625s" repeatCount="indefinite"></animate>
  </rect>
</g><g transform="rotate(22.5 50 50)">
  <rect x="48.5" y="6.5" rx="1.5" ry="12.5" width="3" height="25" fill="#eb7532">
    <animate attributeName="opacity" values="1;0" keyTimes="0;1" dur="1.6666666666666667s" begin="-1.4583333333333335s" repeatCount="indefinite"></animate>
  </rect>
</g><g transform="rotate(45 50 50)">
  <rect x="48.5" y="6.5" rx="1.5" ry="12.5" width="3" height="25" fill="#f7d038">
    <animate attributeName="opacity" values="1;0" keyTimes="0;1" dur="1.6666666666666667s" begin="-1.3541666666666667s" repeatCount="indefinite"></animate>
  </rect>
</g><g transform="rotate(67.5 50 50)">
  <rect x="48.5" y="6.5" rx="1.5" ry="12.5" width="3" height="25" fill="#a3e048">
    <animate attributeName="opacity" values="1;0" keyTimes="0;1" dur="1.6666666666666667s" begin="-1.25s" repeatCount="indefinite"></animate>
  </rect>
</g><g transform="rotate(90 50 50)">
  <rect x="48.5" y="6.5" rx="1.5" ry="12.5" width="3" height="25" fill="#49da9a">
    <animate attributeName="opacity" values="1;0" keyTimes="0;1" dur="1.6666666666666667s" begin="-1.1458333333333335s" repeatCount="indefinite"></animate>
  </rect>
</g><g transform="rotate(112.5 50 50)">
  <rect x="48.5" y="6.5" rx="1.5" ry="12.5" width="3" height="25" fill="#34bbe6">
    <animate attributeName="opacity" values="1;0" keyTimes="0;1" dur="1.6666666666666667s" begin="-1.0416666666666667s" repeatCount="indefinite"></animate>
  </rect>
</g><g transform="rotate(135 50 50)">
  <rect x="48.5" y="6.5" rx="1.5" ry="12.5" width="3" height="25" fill="#4355db">
    <animate attributeName="opacity" values="1;0" keyTimes="0;1" dur="1.6666666666666667s" begin="-0.9375s" repeatCount="indefinite"></animate>
  </rect>
</g><g transform="rotate(157.5 50 50)">
  <rect x="48.5" y="6.5" rx="1.5" ry="12.5" width="3" height="25" fill="#d23be7">
    <animate attributeName="opacity" values="1;0" keyTimes="0;1" dur="1.6666666666666667s" begin="-0.8333333333333334s" repeatCount="indefinite"></animate>
  </rect>
</g><g transform="rotate(180 50 50)">
  <rect x="48.5" y="6.5" rx="1.5" ry="12.5" width="3" height="25" fill="#e6261f">
    <animate attributeName="opacity" values="1;0" keyTimes="0;1" dur="1.6666666666666667s" begin="-0.7291666666666667s" repeatCount="indefinite"></animate>
  </rect>
</g><g transform="rotate(202.5 50 50)">
  <rect x="48.5" y="6.5" rx="1.5" ry="12.5" width="3" height="25" fill="#eb7532">
    <animate attributeName="opacity" values="1;0" keyTimes="0;1" dur="1.6666666666666667s" begin="-0.625s" repeatCount="indefinite"></animate>
  </rect>
</g><g transform="rotate(225 50 50)">
  <rect x="48.5" y="6.5" rx="1.5" ry="12.5" width="3" height="25" fill="#f7d038">
    <animate attributeName="opacity" values="1;0" keyTimes="0;1" dur="1.6666666666666667s" begin="-0.5208333333333334s" repeatCount="indefinite"></animate>
  </rect>
</g><g transform="rotate(247.5 50 50)">
  <rect x="48.5" y="6.5" rx="1.5" ry="12.5" width="3" height="25" fill="#a3e048">
    <animate attributeName="opacity" values="1;0" keyTimes="0;1" dur="1.6666666666666667s" begin="-0.4166666666666667s" repeatCount="indefinite"></animate>
  </rect>
</g><g transform="rotate(270 50 50)">
  <rect x="48.5" y="6.5" rx="1.5" ry="12.5" width="3" height="25" fill="#49da9a">
    <animate attributeName="opacity" values="1;0" keyTimes="0;1" dur="1.6666666666666667s" begin="-0.3125s" repeatCount="indefinite"></animate>
  </rect>
</g><g transform="rotate(292.5 50 50)">
  <rect x="48.5" y="6.5" rx="1.5" ry="12.5" width="3" height="25" fill="#34bbe6">
    <animate attributeName="opacity" values="1;0" keyTimes="0;1" dur="1.6666666666666667s" begin="-0.20833333333333334s" repeatCount="indefinite"></animate>
  </rect>
</g><g transform="rotate(315 50 50)">
  <rect x="48.5" y="6.5" rx="1.5" ry="12.5" width="3" height="25" fill="#4355db">
    <animate attributeName="opacity" values="1;0" keyTimes="0;1" dur="1.6666666666666667s" begin="-0.10416666666666667s" repeatCount="indefinite"></animate>
  </rect>
</g><g transform="rotate(337.5 50 50)">
  <rect x="48.5" y="6.5" rx="1.5" ry="12.5" width="3" height="25" fill="#d23be7">
    <animate attributeName="opacity" values="1;0" keyTimes="0;1" dur="1.6666666666666667s" begin="0s" repeatCount="indefinite"></animate>
  </rect>
</g>
<!-- [ldio] generated by https://loading.io/ --></svg>