<?xml version="1.0" encoding="utf-8"?>
<svg xmlns="http://www.w3.org/2000/svg" xmlns:xlink="http://www.w3.org/1999/xlink" style="margin: auto; background: none; display: block; shape-rendering: auto;" width="243px" height="243px" viewBox="0 0 100 100" preserveAspectRatio="xMidYMid">
<g transform="rotate(0 50 50)">
  <rect x="48" y="14.5" rx="2" ry="9.5" width="4" height="19" fill="#f29c98">
    <animate attributeName="opacity" values="1;0" keyTimes="0;1" dur="1.25s" begin="-1.1666666666666667s" repeatCount="indefinite"></animate>
  </rect>
</g><g transform="rotate(24 50 50)">
  <rect x="48" y="14.5" rx="2" ry="9.5" width="4" height="19" fill="#f5b697">
    <animate attributeName="opacity" values="1;0" keyTimes="0;1" dur="1.25s" begin="-1.0833333333333333s" repeatCount="indefinite"></animate>
  </rect>
</g><g transform="rotate(48 50 50)">
  <rect x="48" y="14.5" rx="2" ry="9.5" width="4" height="19" fill="#f5e797">
    <animate attributeName="opacity" values="1;0" keyTimes="0;1" dur="1.25s" begin="-1s" repeatCount="indefinite"></animate>
  </rect>
</g><g transform="rotate(72 50 50)">
  <rect x="48" y="14.5" rx="2" ry="9.5" width="4" height="19" fill="#a2e4f5">
    <animate attributeName="opacity" values="1;0" keyTimes="0;1" dur="1.25s" begin="-0.9166666666666666s" repeatCount="indefinite"></animate>
  </rect>
</g><g transform="rotate(96 50 50)">
  <rect x="48" y="14.5" rx="2" ry="9.5" width="4" height="19" fill="#009dd3">
    <animate attributeName="opacity" values="1;0" keyTimes="0;1" dur="1.25s" begin="-0.8333333333333334s" repeatCount="indefinite"></animate>
  </rect>
</g><g transform="rotate(120 50 50)">
  <rect x="48" y="14.5" rx="2" ry="9.5" width="4" height="19" fill="#f29c98">
    <animate attributeName="opacity" values="1;0" keyTimes="0;1" dur="1.25s" begin="-0.75s" repeatCount="indefinite"></animate>
  </rect>
</g><g transform="rotate(144 50 50)">
  <rect x="48" y="14.5" rx="2" ry="9.5" width="4" height="19" fill="#f5b697">
    <animate attributeName="opacity" values="1;0" keyTimes="0;1" dur="1.25s" begin="-0.6666666666666666s" repeatCount="indefinite"></animate>
  </rect>
</g><g transform="rotate(168 50 50)">
  <rect x="48" y="14.5" rx="2" ry="9.5" width="4" height="19" fill="#f5e797">
    <animate attributeName="opacity" values="1;0" keyTimes="0;1" dur="1.25s" begin="-0.5833333333333334s" repeatCount="indefinite"></animate>
  </rect>
</g><g transform="rotate(192 50 50)">
  <rect x="48" y="14.5" rx="2" ry="9.5" width="4" height="19" fill="#a2e4f5">
    <animate attributeName="opacity" values="1;0" keyTimes="0;1" dur="1.25s" begin="-0.5s" repeatCount="indefinite"></animate>
  </rect>
</g><g transform="rotate(216 50 50)">
  <rect x="48" y="14.5" rx="2" ry="9.5" width="4" height="19" fill="#009dd3">
    <animate attributeName="opacity" values="1;0" keyTimes="0;1" dur="1.25s" begin="-0.4166666666666667s" repeatCount="indefinite"></animate>
  </rect>
</g><g transform="rotate(240 50 50)">
  <rect x="48" y="14.5" rx="2" ry="9.5" width="4" height="19" fill="#f29c98">
    <animate attributeName="opacity" values="1;0" keyTimes="0;1" dur="1.25s" begin="-0.3333333333333333s" repeatCount="indefinite"></animate>
  </rect>
</g><g transform="rotate(264 50 50)">
  <rect x="48" y="14.5" rx="2" ry="9.5" width="4" height="19" fill="#f5b697">
    <animate attributeName="opacity" values="1;0" keyTimes="0;1" dur="1.25s" begin="-0.25s" repeatCount="indefinite"></animate>
  </rect>
</g><g transform="rotate(288 50 50)">
  <rect x="48" y="14.5" rx="2" ry="9.5" width="4" height="19" fill="#f5e797">
    <animate attributeName="opacity" values="1;0" keyTimes="0;1" dur="1.25s" begin="-0.16666666666666666s" repeatCount="indefinite"></animate>
  </rect>
</g><g transform="rotate(312 50 50)">
  <rect x="48" y="14.5" rx="2" ry="9.5" width="4" height="19" fill="#a2e4f5">
    <animate attributeName="opacity" values="1;0" keyTimes="0;1" dur="1.25s" begin="-0.08333333333333333s" repeatCount="indefinite"></animate>
  </rect>
</g><g transform="rotate(336 50 50)">
  <rect x="48" y="14.5" rx="2" ry="9.5" width="4" height="19" fill="#009dd3">
    <animate attributeName="opacity" values="1;0" keyTimes="0;1" dur="1.25s" begin="0s" repeatCount="indefinite"></animate>
  </rect>
</g>
<!-- [ldio] generated by https://loading.io/ --></svg>